<svg xmlns="http://www.w3.org/2000/svg" width="900" height="520" viewBox="0 0 900 520" role="img" aria-label="Illustration">
  <defs>
    <linearGradient id="sky" x1="0" y1="0" x2="0" y2="1">
      <stop offset="0%" stop-color="#fde68a"/>
      <stop offset="100%" stop-color="#fef9c3"/>
    </linearGradient>
  </defs>
  <rect width="900" height="520" rx="28" fill="url(#sky)"/>
  
  <rect x="0" y="360" width="900" height="160" fill="#a3a3a3"/>
  <rect x="180" y="120" width="540" height="260" rx="10" fill="#fde68a"/>
  <rect x="220" y="160" width="70" height="90" fill="#cbd5e1"/>
  <rect x="610" y="160" width="70" height="90" fill="#cbd5e1"/>
  <rect x="390" y="210" width="120" height="170" fill="#7c2d12"/>
  <rect x="60" y="300" width="130" height="90" rx="8" fill="#1f2937"/>
  <rect x="72" y="315" width="18" height="60" fill="#f97316"/><rect x="94" y="315" width="18" height="60" fill="#22c55e"/><rect x="116" y="315" width="18" height="60" fill="#3b82f6"/><rect x="138" y="315" width="18" height="60" fill="#eab308"/>
  
  <circle cx="320" cy="300" r="18" fill="#f8d5b8"/>
  <rect x="304" y="316" width="32" height="46" rx="12" fill="#a855f7"/>
  <rect x="307" y="362" width="10" height="36" rx="4" fill="#334155"/>
  <rect x="323" y="362" width="10" height="36" rx="4" fill="#334155"/>

  
  <circle cx="560" cy="300" r="18" fill="#f8d5b8"/>
  <rect x="544" y="316" width="32" height="46" rx="12" fill="#ec4899"/>
  <rect x="547" y="362" width="10" height="36" rx="4" fill="#334155"/>
  <rect x="563" y="362" width="10" height="36" rx="4" fill="#334155"/>


</svg>
