<svg xmlns="http://www.w3.org/2000/svg" width="900" height="520" viewBox="0 0 900 520" role="img" aria-label="Illustration">
  <defs>
    <linearGradient id="sky" x1="0" y1="0" x2="0" y2="1">
      <stop offset="0%" stop-color="#fbcfe8"/>
      <stop offset="100%" stop-color="#fde68a"/>
    </linearGradient>
  </defs>
  <rect width="900" height="520" rx="28" fill="url(#sky)"/>
  
  <rect x="0" y="340" width="900" height="180" fill="#86efac"/>
  <rect x="620" y="170" width="180" height="170" fill="#fef3c7"/>
  <polygon points="600,180 710,110 820,180" fill="#f87171"/>
  <rect x="680" y="250" width="40" height="90" fill="#92400e"/>
  <circle cx="140" cy="180" r="45" fill="#22c55e"/><rect x="130" y="210" width="20" height="90" fill="#92400e"/>
  
  <circle cx="350" cy="285" r="18" fill="#f8d5b8"/>
  <rect x="334" y="301" width="32" height="46" rx="12" fill="#f97316"/>
  <rect x="337" y="347" width="10" height="36" rx="4" fill="#334155"/>
  <rect x="353" y="347" width="10" height="36" rx="4" fill="#334155"/>

  
  <circle cx="430" cy="285" r="18" fill="#f8d5b8"/>
  <rect x="414" y="301" width="32" height="46" rx="12" fill="#22c55e"/>
  <rect x="417" y="347" width="10" height="36" rx="4" fill="#334155"/>
  <rect x="433" y="347" width="10" height="36" rx="4" fill="#334155"/>

  
  <circle cx="510" cy="285" r="18" fill="#f8d5b8"/>
  <rect x="494" y="301" width="32" height="46" rx="12" fill="#3b82f6"/>
  <rect x="497" y="347" width="10" height="36" rx="4" fill="#334155"/>
  <rect x="513" y="347" width="10" height="36" rx="4" fill="#334155"/>


</svg>
