<svg xmlns="http://www.w3.org/2000/svg" width="900" height="520" viewBox="0 0 900 520" role="img" aria-label="Illustration">
  <defs>
    <linearGradient id="sky" x1="0" y1="0" x2="0" y2="1">
      <stop offset="0%" stop-color="#99f6e4"/>
      <stop offset="100%" stop-color="#ccfbf1"/>
    </linearGradient>
  </defs>
  <rect width="900" height="520" rx="28" fill="url(#sky)"/>
  
  <rect x="0" y="350" width="900" height="170" fill="#99f6e4"/>
  <rect x="220" y="150" width="460" height="210" rx="18" fill="#ffffff" opacity="0.7"/>
  <circle cx="350" cy="240" r="52" fill="#38bdf8" opacity="0.75"/>
  <circle cx="550" cy="240" r="52" fill="#34d399" opacity="0.75"/>
  <rect x="430" y="228" width="40" height="20" rx="10" fill="#0f766e"/>
  
  <circle cx="320" cy="285" r="18" fill="#f8d5b8"/>
  <rect x="304" y="301" width="32" height="46" rx="12" fill="#0ea5e9"/>
  <rect x="307" y="347" width="10" height="36" rx="4" fill="#334155"/>
  <rect x="323" y="347" width="10" height="36" rx="4" fill="#334155"/>

  
  <circle cx="580" cy="285" r="18" fill="#f8d5b8"/>
  <rect x="564" y="301" width="32" height="46" rx="12" fill="#10b981"/>
  <rect x="567" y="347" width="10" height="36" rx="4" fill="#334155"/>
  <rect x="583" y="347" width="10" height="36" rx="4" fill="#334155"/>


</svg>
