<svg xmlns="http://www.w3.org/2000/svg" width="900" height="520" viewBox="0 0 900 520" role="img" aria-label="Ilustración narrativa proque interlingua es utile">

  <defs>
    <linearGradient id="sky" x1="0" y1="0" x2="0" y2="1">
      <stop offset="0%" stop-color="#f4c37a"/>
      <stop offset="70%" stop-color="#eba15e"/>
      <stop offset="100%" stop-color="#6f9f7a"/>
    </linearGradient>
    <filter id="grain" x="-20%" y="-20%" width="140%" height="140%">
      <feTurbulence type="fractalNoise" baseFrequency="0.9" numOctaves="2" seed="7" result="noise"/>
      <feColorMatrix type="saturate" values="0"/>
      <feComponentTransfer>
        <feFuncA type="table" tableValues="0 0.05"/>
      </feComponentTransfer>
    </filter>
  </defs>

  <rect width="900" height="520" rx="28" fill="url(#sky)"/>
  <rect y="310" width="900" height="210" fill="#6b8f5f"/>
  <ellipse cx="180" cy="250" rx="120" ry="130" fill="#5d7f4e" opacity="0.8"/>
  <ellipse cx="760" cy="255" rx="140" ry="135" fill="#5d7f4e" opacity="0.8"/>
  <rect x="0" y="340" width="900" height="180" fill="#7a9f63" opacity="0.75"/>
  
  <rect x="230" y="165" width="440" height="190" rx="18" fill="#efe6d1" opacity="0.92" stroke="#4a3424" stroke-width="4"/>
  <circle cx="360" cy="244" r="54" fill="#6fa4c8" opacity="0.75"/>
  <circle cx="540" cy="244" r="54" fill="#74b08b" opacity="0.75"/>
  <rect x="430" y="235" width="40" height="20" rx="10" fill="#4b6d67"/>
  <path d="M310 400 Q450 362 590 400" stroke="#665648" stroke-width="10" fill="none"/>
  
  <g transform="translate(325,150) scale(0.92) scale(1,1)">
    <ellipse cx="0" cy="120" rx="62" ry="86" fill="#d8c39a" stroke="#4a3424" stroke-width="3"/>
    <rect x="-55" y="188" width="46" height="80" rx="18" fill="#4f5560" stroke="#4a3424" stroke-width="3"/>
    <rect x="9" y="188" width="46" height="80" rx="18" fill="#4f5560" stroke="#4a3424" stroke-width="3"/>
    <ellipse cx="0" cy="34" rx="44" ry="48" fill="#f0b47d" stroke="#4a3424" stroke-width="3"/>
    <path d="M-48 20 C-40 -32, 42 -34, 50 18 C38 2, 14 -8, -8 -3 C-24 0,-37 8,-48 20 Z" fill="#6a3f27" stroke="#4a3424" stroke-width="3"/>
    <ellipse cx="-15" cy="36" rx="4.2" ry="5.8" fill="#3b2a1f"/>
    <ellipse cx="15" cy="36" rx="4.2" ry="5.8" fill="#3b2a1f"/>
    <path d="M-12 56 Q0 66 12 56" fill="none" stroke="#9c4a2f" stroke-width="3" stroke-linecap="round"/>
    <path d="M-58 114 Q-82 130 -70 162" fill="none" stroke="#f0b47d" stroke-width="16" stroke-linecap="round"/>
    <path d="M58 114 Q82 130 72 162" fill="none" stroke="#f0b47d" stroke-width="16" stroke-linecap="round"/>
  </g>

  
  <g transform="translate(575,150) scale(0.92) scale(-1,1)">
    <ellipse cx="0" cy="120" rx="62" ry="86" fill="#5e83a8" stroke="#4a3424" stroke-width="3"/>
    <rect x="-55" y="188" width="46" height="80" rx="18" fill="#4f5560" stroke="#4a3424" stroke-width="3"/>
    <rect x="9" y="188" width="46" height="80" rx="18" fill="#4f5560" stroke="#4a3424" stroke-width="3"/>
    <ellipse cx="0" cy="34" rx="44" ry="48" fill="#efb078" stroke="#4a3424" stroke-width="3"/>
    <path d="M-48 20 C-40 -32, 42 -34, 50 18 C38 2, 14 -8, -8 -3 C-24 0,-37 8,-48 20 Z" fill="#2f2a26" stroke="#4a3424" stroke-width="3"/>
    <ellipse cx="-15" cy="36" rx="4.2" ry="5.8" fill="#3b2a1f"/>
    <ellipse cx="15" cy="36" rx="4.2" ry="5.8" fill="#3b2a1f"/>
    <path d="M-12 56 Q0 66 12 56" fill="none" stroke="#9c4a2f" stroke-width="3" stroke-linecap="round"/>
    <path d="M-58 114 Q-82 130 -70 162" fill="none" stroke="#efb078" stroke-width="16" stroke-linecap="round"/>
    <path d="M58 114 Q82 130 72 162" fill="none" stroke="#efb078" stroke-width="16" stroke-linecap="round"/>
  </g>


  <rect width="900" height="520" rx="28" fill="#000" filter="url(#grain)" opacity="0.22"/>
</svg>
