<svg xmlns="http://www.w3.org/2000/svg" width="900" height="520" viewBox="0 0 900 520" role="img" aria-label="Illustration">
  <defs>
    <linearGradient id="sky" x1="0" y1="0" x2="0" y2="1">
      <stop offset="0%" stop-color="#93c5fd"/>
      <stop offset="100%" stop-color="#dbeafe"/>
    </linearGradient>
  </defs>
  <rect width="900" height="520" rx="28" fill="url(#sky)"/>
  
  <rect x="0" y="340" width="900" height="180" fill="#86efac"/>
  <rect x="300" y="170" width="300" height="190" rx="8" fill="#fef3c7"/>
  <polygon points="280,180 450,90 620,180" fill="#ef4444"/>
  <rect x="430" y="250" width="40" height="110" fill="#92400e"/>
  <rect x="340" y="220" width="48" height="40" fill="#93c5fd"/>
  <rect x="512" y="220" width="48" height="40" fill="#93c5fd"/>
  
  <circle cx="240" cy="285" r="18" fill="#f8d5b8"/>
  <rect x="224" y="301" width="32" height="46" rx="12" fill="#22c55e"/>
  <rect x="227" y="347" width="10" height="36" rx="4" fill="#334155"/>
  <rect x="243" y="347" width="10" height="36" rx="4" fill="#334155"/>

  
  <circle cx="660" cy="285" r="18" fill="#f8d5b8"/>
  <rect x="644" y="301" width="32" height="46" rx="12" fill="#3b82f6"/>
  <rect x="647" y="347" width="10" height="36" rx="4" fill="#334155"/>
  <rect x="663" y="347" width="10" height="36" rx="4" fill="#334155"/>


</svg>
