<svg xmlns="http://www.w3.org/2000/svg" width="900" height="520" viewBox="0 0 900 520" role="img" aria-label="Illustration">
  <defs>
    <linearGradient id="sky" x1="0" y1="0" x2="0" y2="1">
      <stop offset="0%" stop-color="#86efac"/>
      <stop offset="100%" stop-color="#dcfce7"/>
    </linearGradient>
  </defs>
  <rect width="900" height="520" rx="28" fill="url(#sky)"/>
  
  <rect x="0" y="330" width="900" height="190" fill="#86efac"/>
  <circle cx="740" cy="95" r="38" fill="#fde047"/>
  <circle cx="220" cy="180" r="62" fill="#22c55e"/><rect x="208" y="215" width="24" height="96" fill="#92400e"/>
  <circle cx="470" cy="150" r="52" fill="#16a34a"/><rect x="460" y="182" width="20" height="92" fill="#92400e"/>
  <rect x="300" y="300" width="180" height="18" rx="9" fill="#8b5a2b"/>
  
  <circle cx="350" cy="275" r="18" fill="#f8d5b8"/>
  <rect x="334" y="291" width="32" height="46" rx="12" fill="#eab308"/>
  <rect x="337" y="337" width="10" height="36" rx="4" fill="#334155"/>
  <rect x="353" y="337" width="10" height="36" rx="4" fill="#334155"/>

  
  <circle cx="430" cy="275" r="18" fill="#f8d5b8"/>
  <rect x="414" y="291" width="32" height="46" rx="12" fill="#ef4444"/>
  <rect x="417" y="337" width="10" height="36" rx="4" fill="#334155"/>
  <rect x="433" y="337" width="10" height="36" rx="4" fill="#334155"/>


</svg>
