<svg xmlns="http://www.w3.org/2000/svg" width="900" height="520" viewBox="0 0 900 520" role="img" aria-label="Illustration">
  <defs>
    <linearGradient id="sky" x1="0" y1="0" x2="0" y2="1">
      <stop offset="0%" stop-color="#c4b5fd"/>
      <stop offset="100%" stop-color="#dbeafe"/>
    </linearGradient>
  </defs>
  <rect width="900" height="520" rx="28" fill="url(#sky)"/>
  
  <rect x="0" y="350" width="900" height="170" fill="#bfdbfe"/>
  <rect x="250" y="130" width="400" height="220" rx="24" fill="#1e293b" opacity="0.7"/>
  <circle cx="350" cy="220" r="48" fill="#38bdf8" opacity="0.85"/>
  <circle cx="550" cy="220" r="48" fill="#a78bfa" opacity="0.85"/>
  <rect x="390" y="210" width="120" height="20" rx="10" fill="#f8fafc" opacity="0.8"/>
  
  <circle cx="320" cy="285" r="18" fill="#f8d5b8"/>
  <rect x="304" y="301" width="32" height="46" rx="12" fill="#2563eb"/>
  <rect x="307" y="347" width="10" height="36" rx="4" fill="#334155"/>
  <rect x="323" y="347" width="10" height="36" rx="4" fill="#334155"/>

  
  <circle cx="580" cy="285" r="18" fill="#f8d5b8"/>
  <rect x="564" y="301" width="32" height="46" rx="12" fill="#7c3aed"/>
  <rect x="567" y="347" width="10" height="36" rx="4" fill="#334155"/>
  <rect x="583" y="347" width="10" height="36" rx="4" fill="#334155"/>


</svg>
